<mxfile host="65bd71144e">
    <diagram id="sB1BTk0PU5gHplG_Dzg3" name="scene_title">
        <mxGraphModel dx="1073" dy="523" grid="1" gridSize="10" guides="1" tooltips="1" connect="1" arrows="1" fold="1" page="1" pageScale="1" pageWidth="480" pageHeight="240" math="0" shadow="0">
            <root>
                <mxCell id="0"/>
                <mxCell id="1" parent="0"/>
                <mxCell id="2" value="rect_title" style="rounded=0;whiteSpace=wrap;html=1;" vertex="1" parent="1">
                    <mxGeometry x="20" y="20" width="440" height="30" as="geometry"/>
                </mxCell>
                <mxCell id="3" value="rect_gamestart" style="rounded=0;whiteSpace=wrap;html=1;" vertex="1" parent="1">
                    <mxGeometry x="140" y="90" width="200" height="20" as="geometry"/>
                </mxCell>
                <mxCell id="4" value="rect_option" style="rounded=0;whiteSpace=wrap;html=1;" vertex="1" parent="1">
                    <mxGeometry x="140" y="130" width="200" height="20" as="geometry"/>
                </mxCell>
                <mxCell id="5" value="rect_end" style="rounded=0;whiteSpace=wrap;html=1;" vertex="1" parent="1">
                    <mxGeometry x="140" y="170" width="200" height="20" as="geometry"/>
                </mxCell>
                <mxCell id="6" value="rect_credit" style="rounded=0;whiteSpace=wrap;html=1;" vertex="1" parent="1">
                    <mxGeometry x="340" y="210" width="60" height="20" as="geometry"/>
                </mxCell>
                <mxCell id="8" value="rect_license" style="rounded=0;whiteSpace=wrap;html=1;" vertex="1" parent="1">
                    <mxGeometry x="410" y="210" width="60" height="20" as="geometry"/>
                </mxCell>
                <mxCell id="9" value="pos_version" style="shape=partialRectangle;whiteSpace=wrap;html=1;bottom=0;right=0;fillColor=none;" vertex="1" parent="1">
                    <mxGeometry x="10" y="210" width="70" height="20" as="geometry"/>
                </mxCell>
            </root>
        </mxGraphModel>
    </diagram>
    <diagram id="UxaDyxhYECqCGR5hONRQ" name="scene_stage_select">
        <mxGraphModel dx="1073" dy="523" grid="1" gridSize="10" guides="1" tooltips="1" connect="1" arrows="1" fold="1" page="1" pageScale="1" pageWidth="480" pageHeight="240" math="0" shadow="0">
            <root>
                <mxCell id="0"/>
                <mxCell id="1" parent="0"/>
                <mxCell id="uz7fwt5SNAtOfXOVho1q-1" value="rect_header" style="rounded=0;whiteSpace=wrap;html=1;" vertex="1" parent="1">
                    <mxGeometry x="20" y="5" width="440" height="30" as="geometry"/>
                </mxCell>
                <mxCell id="uz7fwt5SNAtOfXOVho1q-2" value="rect_footer" style="rounded=0;whiteSpace=wrap;html=1;" vertex="1" parent="1">
                    <mxGeometry x="20" y="205" width="440" height="30" as="geometry"/>
                </mxCell>
                <mxCell id="uz7fwt5SNAtOfXOVho1q-3" value="rect_stage_list" style="rounded=0;whiteSpace=wrap;html=1;" vertex="1" parent="1">
                    <mxGeometry x="270" y="45" width="190" height="150" as="geometry"/>
                </mxCell>
                <mxCell id="uz7fwt5SNAtOfXOVho1q-4" value="rect_stage_title" style="rounded=0;whiteSpace=wrap;html=1;" vertex="1" parent="1">
                    <mxGeometry x="20" y="45" width="240" height="20" as="geometry"/>
                </mxCell>
                <mxCell id="uz7fwt5SNAtOfXOVho1q-5" value="rect_thumbnail" style="rounded=0;whiteSpace=wrap;html=1;" vertex="1" parent="1">
                    <mxGeometry x="20" y="75" width="240" height="120" as="geometry"/>
                </mxCell>
            </root>
        </mxGraphModel>
    </diagram>
    <diagram id="8QI9MoBnzNYAVo5cPoQN" name="scene_stage_select_header">
        <mxGraphModel dx="1073" dy="523" grid="1" gridSize="10" guides="1" tooltips="1" connect="1" arrows="1" fold="1" page="1" pageScale="1" pageWidth="600" pageHeight="70" math="0" shadow="0">
            <root>
                <mxCell id="0"/>
                <mxCell id="1" parent="0"/>
                <mxCell id="WcshdODsIQYZWOo4p-C--1" value="rect_back" style="rounded=0;whiteSpace=wrap;html=1;fontSize=8;" vertex="1" parent="1">
                    <mxGeometry x="540" y="15" width="40" height="40" as="geometry"/>
                </mxCell>
                <mxCell id="WcshdODsIQYZWOo4p-C--2" value="rect_option" style="rounded=0;whiteSpace=wrap;html=1;fontSize=8;" vertex="1" parent="1">
                    <mxGeometry x="490" y="15" width="40" height="40" as="geometry"/>
                </mxCell>
                <mxCell id="WcshdODsIQYZWOo4p-C--3" value="rect_scene_title" style="rounded=0;whiteSpace=wrap;html=1;fontSize=12;" vertex="1" parent="1">
                    <mxGeometry x="10" y="10" width="465" height="50" as="geometry"/>
                </mxCell>
            </root>
        </mxGraphModel>
    </diagram>
    <diagram id="inqNt7d4LbIKGnadOKXI" name="scene_stage_select_footer">
        <mxGraphModel dx="1073" dy="523" grid="1" gridSize="10" guides="1" tooltips="1" connect="1" arrows="1" fold="1" page="1" pageScale="1" pageWidth="600" pageHeight="50" math="0" shadow="0">
            <root>
                <mxCell id="0"/>
                <mxCell id="1" parent="0"/>
                <mxCell id="Xx_dwdRGCZoXDCxhME6J-1" value="rect_game_start" style="rounded=0;whiteSpace=wrap;html=1;fontSize=12;" vertex="1" parent="1">
                    <mxGeometry x="390" y="10" width="200" height="30" as="geometry"/>
                </mxCell>
            </root>
        </mxGraphModel>
    </diagram>
    <diagram id="ivPJPEw9d53AUGucF9lv" name="scene_stage_select_stage_list">
        <mxGraphModel dx="1073" dy="523" grid="1" gridSize="10" guides="1" tooltips="1" connect="1" arrows="1" fold="1" page="1" pageScale="1" pageWidth="260" pageHeight="310" math="0" shadow="0">
            <root>
                <mxCell id="0"/>
                <mxCell id="1" parent="0"/>
                <mxCell id="zL2FEg4ZQZXWfwZurbii-2" value="rect_stage_level_1" style="rounded=0;whiteSpace=wrap;html=1;fontSize=12;align=left;textOpacity=0;" vertex="1" parent="1">
                    <mxGeometry x="45" y="10" width="20" height="20" as="geometry"/>
                </mxCell>
                <mxCell id="zL2FEg4ZQZXWfwZurbii-1" value="rect_stage_level_0" style="rounded=0;whiteSpace=wrap;html=1;fontSize=12;align=left;" vertex="1" parent="1">
                    <mxGeometry x="15" y="10" width="20" height="20" as="geometry"/>
                </mxCell>
                <mxCell id="zL2FEg4ZQZXWfwZurbii-3" value="rect_stage_level_8" style="rounded=0;whiteSpace=wrap;html=1;fontSize=12;align=left;" vertex="1" parent="1">
                    <mxGeometry x="15" y="40" width="20" height="20" as="geometry"/>
                </mxCell>
            </root>
        </mxGraphModel>
    </diagram>
    <diagram id="oiCTT6sCYqdihkd6QBbx" name="scene_game">
        <mxGraphModel dx="1073" dy="523" grid="1" gridSize="10" guides="1" tooltips="1" connect="1" arrows="1" fold="1" page="1" pageScale="1" pageWidth="480" pageHeight="240" math="0" shadow="0">
            <root>
                <mxCell id="0"/>
                <mxCell id="1" parent="0"/>
            </root>
        </mxGraphModel>
    </diagram>
</mxfile>